<?xml version="1.0" encoding="UTF-8" standalone="no"?>
<!-- Created with Inkscape (http://www.inkscape.org/) -->

<svg
   xmlns:dc="http://purl.org/dc/elements/1.1/"
   xmlns:cc="http://creativecommons.org/ns#"
   xmlns:rdf="http://www.w3.org/1999/02/22-rdf-syntax-ns#"
   xmlns:svg="http://www.w3.org/2000/svg"
   xmlns="http://www.w3.org/2000/svg"
   xmlns:xlink="http://www.w3.org/1999/xlink"
   xmlns:sodipodi="http://sodipodi.sourceforge.net/DTD/sodipodi-0.dtd"
   xmlns:inkscape="http://www.inkscape.org/namespaces/inkscape"
   width="250"
   height="250"
   viewBox="0 0 66.146248 66.145835"
   version="1.1"
   id="svg5556"
   sodipodi:docname="sgraffito.svg"
   inkscape:export-filename="/home/aa/projects/openengiadina.svg.png"
   inkscape:export-xdpi="276.20999"
   inkscape:export-ydpi="276.20999"
   inkscape:version="0.92.4 (5da689c313, 2019-01-14)">
  <defs
     id="defs5550">
    <inkscape:path-effect
       effect="simplify"
       id="path-effect6275"
       is_visible="true"
       steps="3"
       threshold="0.0022"
       smooth_angles="0"
       helper_size="5"
       simplify_individual_paths="false"
       simplify_just_coalesce="false" />
    <inkscape:path-effect
       effect="simplify"
       id="path-effect6244"
       is_visible="true"
       steps="1"
       threshold="0.5"
       smooth_angles="360"
       helper_size="0"
       simplify_individual_paths="false"
       simplify_just_coalesce="false"
       simplifyindividualpaths="false"
       simplifyJustCoalesce="false" />
    <inkscape:path-effect
       effect="simplify"
       id="path-effect6240"
       is_visible="true"
       steps="1"
       threshold="0.5"
       smooth_angles="360"
       helper_size="0"
       simplify_individual_paths="false"
       simplify_just_coalesce="false"
       simplifyindividualpaths="false"
       simplifyJustCoalesce="false" />
    <inkscape:path-effect
       effect="simplify"
       id="path-effect6232"
       is_visible="true"
       steps="1"
       threshold="0.5"
       smooth_angles="360"
       helper_size="0"
       simplify_individual_paths="false"
       simplify_just_coalesce="false"
       simplifyindividualpaths="false"
       simplifyJustCoalesce="false" />
    <inkscape:path-effect
       effect="simplify"
       id="path-effect6228"
       is_visible="true"
       steps="1"
       threshold="0.5"
       smooth_angles="360"
       helper_size="0"
       simplify_individual_paths="false"
       simplify_just_coalesce="false"
       simplifyindividualpaths="false"
       simplifyJustCoalesce="false" />
    <inkscape:path-effect
       effect="simplify"
       id="path-effect6210"
       is_visible="true"
       steps="1"
       threshold="0.5"
       smooth_angles="360"
       helper_size="0"
       simplify_individual_paths="false"
       simplify_just_coalesce="false"
       simplifyindividualpaths="false"
       simplifyJustCoalesce="false" />
    <inkscape:path-effect
       effect="simplify"
       id="path-effect6206"
       is_visible="true"
       steps="1"
       threshold="0.5"
       smooth_angles="360"
       helper_size="0"
       simplify_individual_paths="false"
       simplify_just_coalesce="false"
       simplifyindividualpaths="false"
       simplifyJustCoalesce="false" />
    <inkscape:path-effect
       effect="simplify"
       id="path-effect6169"
       is_visible="true"
       steps="1"
       threshold="0.0236793"
       smooth_angles="360"
       helper_size="0"
       simplify_individual_paths="false"
       simplify_just_coalesce="false"
       simplifyindividualpaths="false"
       simplifyJustCoalesce="false" />
  </defs>
  <sodipodi:namedview
     id="base"
     pagecolor="#ffffff"
     bordercolor="#666666"
     borderopacity="1.0"
     inkscape:pageopacity="0.0"
     inkscape:pageshadow="2"
     inkscape:zoom="1"
     inkscape:cx="289.65331"
     inkscape:cy="107.95252"
     inkscape:document-units="mm"
     inkscape:current-layer="layer3"
     showgrid="false"
     inkscape:snap-bbox="true"
     inkscape:bbox-paths="true"
     inkscape:bbox-nodes="true"
     inkscape:snap-bbox-midpoints="false"
     inkscape:snap-global="true"
     inkscape:window-width="1920"
     inkscape:window-height="1055"
     inkscape:window-x="0"
     inkscape:window-y="25"
     inkscape:window-maximized="0"
     units="px">
    <inkscape:grid
       type="xygrid"
       id="grid6179" />
  </sodipodi:namedview>
  <metadata
     id="metadata5553">
    <rdf:RDF>
      <cc:Work
         rdf:about="">
        <dc:format>image/svg+xml</dc:format>
        <dc:type
           rdf:resource="http://purl.org/dc/dcmitype/StillImage" />
        <dc:title></dc:title>
      </cc:Work>
    </rdf:RDF>
  </metadata>
  <g
     inkscape:groupmode="layer"
     id="layer3"
     inkscape:label="Layer 3"
     style="opacity:1"
     transform="translate(0,-230.85232)">
    <g
       id="g7388"
       transform="matrix(1.1597563,0,0,1.1597563,-60.341565,152.78005)">
      <circle
         r="27.803766"
         cy="96.155983"
         cx="80.949585"
         id="path6175"
         style="display:inline;opacity:1;fill:#4782a7;fill-opacity:1;fill-rule:nonzero;stroke:#4782a7;stroke-width:0.22086321;stroke-linecap:round;stroke-linejoin:round;stroke-miterlimit:4;stroke-dasharray:none;stroke-opacity:1" />
      <ellipse
         ry="23.319302"
         rx="23.319288"
         cy="96.155983"
         cx="80.949585"
         id="path6175-3"
         style="display:inline;opacity:1;fill:#ffffff;fill-opacity:1;fill-rule:nonzero" />
      <g
         transform="matrix(0.68066136,0,0,0.68066136,-3.6934844,14.660974)"
         inkscape:tile-y0="99.493797"
         inkscape:tile-x0="90.074347"
         inkscape:tile-h="20.338839"
         inkscape:tile-w="34.463263"
         inkscape:tile-cy="119.61007"
         inkscape:tile-cx="124.34633"
         inkscape:transform-center-y="-9.9332648"
         inkscape:transform-center-x="17.057791"
         id="g6761">
        <g
           inkscape:transform-center-y="-10.052985"
           inkscape:transform-center-x="17.065497"
           id="g6779">
          <path
             sodipodi:nodetypes="csc"
             inkscape:connector-curvature="0"
             id="path6715"
             d="m 90.15677,119.72916 c 0,0 6.695184,-5.33271 19.33533,-4.79873 12.7059,0.53676 14.92821,4.79873 14.92821,4.79873"
             style="fill:none;stroke:#4782a7;stroke-width:0.26458332px;stroke-linecap:butt;stroke-linejoin:miter;stroke-opacity:1" />
          <path
             sodipodi:nodetypes="csc"
             inkscape:connector-curvature="0"
             id="path6723"
             d="m 96.440625,99.85234 c 0,0 8.201725,-1.718976 16.618655,4.28499 11.98492,8.54908 11.29489,15.59184 11.29489,15.59184"
             style="fill:none;stroke:#4782a7;stroke-width:0.26458332px;stroke-linecap:butt;stroke-linejoin:miter;stroke-opacity:1" />
          <ellipse
             ry="3.061609"
             rx="3.0615976"
             cy="108.63915"
             cx="99.720894"
             id="path6742"
             style="display:inline;opacity:1;fill:#4782a7;fill-opacity:1;fill-rule:nonzero;stroke:#4782a7;stroke-width:0.30664244;stroke-linecap:round;stroke-linejoin:round;stroke-miterlimit:4;stroke-dasharray:none;stroke-opacity:1" />
          <path
             sodipodi:nodetypes="cscscsc"
             inkscape:connector-curvature="0"
             id="path6749"
             d="m 118.94162,113.98051 c 0,0 -1.70126,-1.26767 -6.35271,-1.66912 -4.63855,-0.40034 -7.46113,-0.18005 -7.46113,-0.18005 0,0 1.21884,-0.54344 1.73539,-3.00379 0.43251,-2.06 -0.45471,-3.90187 -0.45471,-3.90187 0,0 3.19997,0.28287 7.05193,3.20196 1.89923,1.43927 5.48123,5.55287 5.48123,5.55287 z"
             style="fill:#4782a7;fill-opacity:1;stroke:#4782a7;stroke-width:0.26458332px;stroke-linecap:butt;stroke-linejoin:miter;stroke-opacity:1" />
        </g>
      </g>
      <ellipse
         ry="3.3109448"
         rx="3.9795008"
         cy="87.181175"
         cx="64.244553"
         id="path6740"
         style="opacity:0;fill:#000000;fill-opacity:1;fill-rule:nonzero;stroke:none;stroke-width:0.18037525;stroke-linecap:round;stroke-linejoin:round;stroke-miterlimit:4;stroke-dasharray:none;stroke-opacity:1" />
      <use
         height="100%"
         width="100%"
         inkscape:transform-center-y="78.029974"
         inkscape:transform-center-x="-74.388574"
         id="use6831"
         xlink:href="#g6761"
         inkscape:tiled-clone-of="#g6761"
         y="0"
         x="0" />
      <use
         height="100%"
         width="100%"
         inkscape:transform-center-y="71.00209"
         inkscape:transform-center-x="-86.78443"
         id="use6833"
         transform="rotate(60,80.94426,96.074927)"
         xlink:href="#g6761"
         inkscape:tiled-clone-of="#g6761"
         y="0"
         x="0" />
      <use
         height="100%"
         width="100%"
         inkscape:transform-center-y="73.78199"
         inkscape:transform-center-x="-106.90808"
         id="use6835"
         transform="rotate(120,80.944258,96.074926)"
         xlink:href="#g6761"
         inkscape:tiled-clone-of="#g6761"
         y="0"
         x="0" />
      <use
         height="100%"
         width="100%"
         inkscape:transform-center-y="97.896506"
         inkscape:transform-center-x="-108.50415"
         id="use6837"
         transform="rotate(180,80.944258,96.07493)"
         xlink:href="#g6761"
         inkscape:tiled-clone-of="#g6761"
         y="0"
         x="0" />
      <use
         height="100%"
         width="100%"
         inkscape:transform-center-y="104.92439"
         inkscape:transform-center-x="-96.108298"
         id="use6839"
         transform="rotate(-120,80.944257,96.074928)"
         xlink:href="#g6761"
         inkscape:tiled-clone-of="#g6761"
         y="0"
         x="0" />
      <use
         height="100%"
         width="100%"
         inkscape:transform-center-y="102.14449"
         inkscape:transform-center-x="-75.984652"
         id="use6841"
         transform="rotate(-60,80.944255,96.074927)"
         xlink:href="#g6761"
         inkscape:tiled-clone-of="#g6761"
         y="0"
         x="0" />
      <path
         inkscape:connector-curvature="0"
         id="path6860"
         d="m 59.509637,105.02497 c -1.049861,-2.54321 -1.648851,-5.289597 -1.743601,-7.994497 l -0.02777,-0.792817 0.265746,-0.179204 c 2.140767,-1.443614 5.203197,-2.488164 8.482426,-2.893235 2.085415,-0.257601 4.7898,-0.232119 7.136132,0.06724 2.504113,0.319494 4.686586,0.988428 6.016703,1.844137 0.364327,0.234384 0.729136,0.518154 0.701567,0.545723 -0.0097,0.0097 -0.137413,-0.02374 -0.28386,-0.07426 -2.918544,-1.006751 -7.194392,-0.384683 -11.939855,1.73706 -3.499206,1.56453 -6.266158,4.121973 -7.888922,7.291603 -0.164811,0.32191 -0.339732,0.6857 -0.388712,0.80842 l -0.08906,0.22313 z"
         style="opacity:1;fill:#4782a7;fill-opacity:1;fill-rule:nonzero;stroke:#4782a7;stroke-width:0.47646293;stroke-linecap:round;stroke-linejoin:round;stroke-miterlimit:4;stroke-dasharray:none;stroke-opacity:1;paint-order:fill markers stroke" />
      <path
         inkscape:connector-curvature="0"
         id="path6862"
         d="m 81.021397,95.346579 c -0.01435,-0.02451 -0.04059,-0.144351 -0.0583,-0.266305 -0.167799,-1.155937 -1.088856,-3.082741 -2.132294,-4.460649 -1.794455,-2.36966 -4.87299,-5.003033 -7.436872,-6.361485 -2.619887,-1.388127 -5.751072,-2.076475 -8.459373,-1.859675 -0.356346,0.02852 -0.656719,0.04304 -0.667498,0.03227 -0.01079,-0.01079 0.151618,-0.23924 0.360884,-0.50769 1.74214,-2.234856 3.919546,-4.174382 6.303783,-5.615099 l 0.351728,-0.212537 0.571241,0.298131 c 1.353677,0.706485 2.66196,1.693371 4.054485,3.058452 1.907491,1.869893 3.424298,3.969333 4.783068,6.620322 1.243546,2.426184 2.011271,4.552767 2.346479,6.4997 0.07937,0.460995 0.09797,0.748225 0.09807,1.514378 9e-5,0.858605 -0.04731,1.376435 -0.115405,1.26019 z"
         style="opacity:1;fill:#4782a7;fill-opacity:1;fill-rule:nonzero;stroke:#4782a7;stroke-width:0.47646293;stroke-linecap:round;stroke-linejoin:round;stroke-miterlimit:4;stroke-dasharray:none;stroke-opacity:1;paint-order:fill markers stroke" />
      <path
         inkscape:connector-curvature="0"
         id="path6864"
         d="m 81.752357,95.654752 c 1.437812,-1.189607 2.72526,-3.379885 3.530806,-6.00681 0.883667,-2.881675 1.299931,-6.418873 1.040986,-8.845768 -0.288696,-2.70573 -1.259013,-5.381177 -2.658603,-7.330534 -0.139962,-0.194942 -0.245287,-0.36363 -0.234054,-0.374862 0.03041,-0.03041 1.288763,0.151802 1.950002,0.282371 1.44117,0.284572 3.181012,0.80824 4.471835,1.345958 0.613965,0.255761 2.332472,1.095207 2.498772,1.220587 0.08589,0.06476 0.08995,0.119208 0.0879,1.18026 -0.0014,0.774152 -0.02629,1.310865 -0.08158,1.765202 -0.384211,3.157498 -1.512983,6.340325 -3.305197,9.319743 -1.914263,3.182317 -4.104519,5.697385 -6.015052,6.907075 -0.441398,0.279479 -1.320169,0.701797 -1.46032,0.701797 -0.01372,0 0.0648,-0.07426 0.174498,-0.165019 z"
         style="opacity:1;fill:#4782a7;fill-opacity:1;fill-rule:nonzero;stroke:#4782a7;stroke-width:0.47646293;stroke-linecap:round;stroke-linejoin:round;stroke-miterlimit:4;stroke-dasharray:none;stroke-opacity:1;paint-order:fill markers stroke" />
      <path
         inkscape:connector-curvature="0"
         id="path6866"
         d="m 90.461139,99.120821 c -4.104728,-0.262873 -7.200543,-1.129568 -8.794985,-2.462215 -0.225676,-0.188623 -0.209853,-0.197766 0.123188,-0.07118 0.347763,0.132176 1.070213,0.300541 1.670734,0.389356 0.721726,0.106744 2.361126,0.104621 3.219138,-0.0042 2.384925,-0.302386 4.827013,-1.05126 7.54924,-2.314993 1.002113,-0.465208 2.351682,-1.308393 3.301282,-2.062577 0.633182,-0.502881 1.961463,-1.830293 2.472284,-2.470665 0.74579,-0.934942 1.60105,-2.310891 1.93996,-3.121037 0.0743,-0.177581 0.14836,-0.322951 0.16462,-0.323045 0.0408,-1.8e-4 0.39661,0.851655 0.65988,1.579694 0.81877,2.264263 1.25318,4.505952 1.37866,7.114407 l 0.0251,0.522613 -0.25871,0.179708 c -0.99661,0.69226 -2.52382,1.413652 -4.085665,1.929897 -1.775661,0.586919 -3.598842,0.941499 -5.648121,1.098472 -0.541655,0.04149 -3.142549,0.0525 -3.716645,0.01574 z"
         style="opacity:1;fill:#4782a7;fill-opacity:1;fill-rule:nonzero;stroke:#4782a7;stroke-width:0.47646293;stroke-linecap:round;stroke-linejoin:round;stroke-miterlimit:4;stroke-dasharray:none;stroke-opacity:1;paint-order:fill markers stroke" />
      <path
         inkscape:connector-curvature="0"
         id="path6868"
         d="m 92.689773,116.13654 c 0,-0.0225 -0.187409,-0.13455 -0.416462,-0.24899 -1.389292,-0.6941 -2.825919,-1.75818 -4.238217,-3.13916 -1.964802,-1.92124 -3.456409,-3.978 -4.848777,-6.68591 -1.806442,-3.5132 -2.682505,-6.691683 -2.426357,-8.803157 0.02545,-0.209832 0.05799,-0.411904 0.07231,-0.449048 0.01432,-0.03714 0.06365,0.114809 0.109631,0.337672 0.602642,2.920763 3.050428,6.123673 6.873102,8.993393 0.857222,0.64353 1.249856,0.91276 1.903261,1.30505 1.871572,1.12368 3.892389,1.84926 6.078093,2.18237 0.719041,0.10958 0.905946,0.12018 2.138588,0.12129 0.768547,7.3e-4 1.462263,-0.0194 1.609569,-0.0467 0.142384,-0.0264 0.258882,-0.0395 0.258882,-0.0291 0,0.0426 -0.836882,1.11256 -1.244577,1.59114 -0.598621,0.70272 -1.944297,2.0383 -2.626286,2.60659 -0.736016,0.61331 -1.594326,1.2503 -2.319787,1.72162 -0.784973,0.50997 -0.92297,0.59115 -0.92297,0.54296 z"
         style="opacity:1;fill:#4782a7;fill-opacity:1;fill-rule:nonzero;stroke:#4782a7;stroke-width:0.47646293;stroke-linecap:round;stroke-linejoin:round;stroke-miterlimit:4;stroke-dasharray:none;stroke-opacity:1;paint-order:fill markers stroke" />
      <path
         inkscape:connector-curvature="0"
         id="path6870"
         d="m 77.6009,119.11767 c -2.725476,-0.4123 -5.339009,-1.28026 -7.683336,-2.55165 -0.279609,-0.15164 -0.4908,-0.28755 -0.469315,-0.30203 0.02204,-0.0149 0.02145,-0.22251 -0.0014,-0.47656 -0.07596,-0.84599 0.01836,-2.25635 0.239149,-3.57602 0.536873,-3.20893 1.872353,-6.42595 3.973063,-9.57067 2.051529,-3.071088 4.059023,-5.10541 5.951516,-6.031052 0.703695,-0.344186 0.737734,-0.322926 0.239747,0.14974 -2.050751,1.946476 -3.505291,5.376942 -4.106821,9.685752 -0.215861,1.54623 -0.230013,1.7429 -0.230013,3.19663 0,1.47965 0.04038,1.97507 0.253189,3.10658 0.410771,2.18404 1.405115,4.53391 2.589244,6.11898 0.132901,0.1779 0.241638,0.33265 0.241638,0.34389 0,0.0399 -0.301714,0.0116 -0.996701,-0.0936 z"
         style="opacity:1;fill:#4782a7;fill-opacity:1;fill-rule:nonzero;stroke:#4782a7;paint-order:fill markers stroke" />
    </g>
  </g>
</svg>
